# xmcd CD database file
#
# Track frame offsets:
#	150
#	14397
#	27752
#	39377
#	53195
#	64510
#	74655
#	86765
#	98902
#	111927
#	125400
#	149105
#
# Disc length: 2225 seconds
#
# Revision: 0
# Processed by: cddbd v1.5.1PL0 Copyright (c) Steve Scherf et al.
# Submitted via: CDex 1.51
#
DISCID=ac08af0c
DTITLE=Rafael Cortijo and Ismael Rivera - Cortijo E Ismael
DYEAR=1900
DGENRE=Salsa
TTITLE0=Candela
TTITLE1=Dolores
TTITLE2=Cara De Payaso
TTITLE3=Entra Mujer
TTITLE4=A Lo Loco
TTITLE5=Fantasia Sideral
TTITLE6=La Timadora
TTITLE7=La Llave
TTITLE8=El Reloj
TTITLE9=Como Baila Lola 
TTITLE10=Quitate El Zapato
TTITLE11=Cortijo Bailable
EXTD=
EXTT0=
EXTT1=
EXTT2=
EXTT3=
EXTT4=
EXTT5=
EXTT6=
EXTT7=
EXTT8=
EXTT9=
EXTT10=
EXTT11=
PLAYORDER=
